<svg width="200" height="210" viewBox="0 0 200 210" fill="none" xmlns="http://www.w3.org/2000/svg">
<circle cx="34.9999" cy="51.6664" r="24.9999" fill="#95A5AB" fill-opacity="0.5"/>
<ellipse cx="16.6666" cy="163.333" rx="16.6666" ry="16.6666" fill="#95A5AB" fill-opacity="0.5"/>
<circle cx="149.999" cy="163.333" r="33.3332" fill="#95A5AB" fill-opacity="0.5"/>
<ellipse cx="118.333" cy="201.666" rx="8.33331" ry="8.33331" fill="#95A5AB" fill-opacity="0.5"/>
<ellipse cx="78.3331" cy="11.6666" rx="11.6666" ry="11.6666" fill="#95A5AB" fill-opacity="0.5"/>
<ellipse cx="78.3331" cy="11.6666" rx="11.6666" ry="11.6666" fill="#95A5AB" fill-opacity="0.5"/>
<path fill-rule="evenodd" clip-rule="evenodd" d="M133.334 159.999C170.152 159.999 200 130.152 200 93.333C200 56.5141 170.152 26.6665 133.334 26.6665C99.3758 26.6665 71.348 52.0555 67.197 84.8866C72.1832 75.982 81.6257 69.9997 93.3336 69.9997C110.877 69.9997 123.334 83.4311 123.334 99.9996C123.334 115.07 108.734 134.438 96.7983 149.106C107.291 155.993 119.844 159.999 133.334 159.999ZM103.334 99.9996C103.334 105.522 98.8565 110 93.3336 110C87.8108 110 83.3337 105.522 83.3337 99.9996C83.3337 94.4768 87.8108 89.9996 93.3336 89.9996C98.8565 89.9996 103.334 94.4768 103.334 99.9996Z" fill="#95A5AB" fill-opacity="0.5"/>
<path fill-rule="evenodd" clip-rule="evenodd" d="M93.3331 193.333C139.357 193.333 176.666 156.023 176.666 110C176.666 63.976 139.357 26.6665 93.3331 26.6665C47.3095 26.6665 10 63.976 10 110C10 156.023 47.3095 193.333 93.3331 193.333ZM123.333 99.9996C123.333 116.568 105.686 138.333 93.3331 153.333C80.9802 138.333 63.3332 116.568 63.3332 99.9996C63.3332 83.4311 75.79 69.9997 93.3331 69.9997C110.876 69.9997 123.333 83.4311 123.333 99.9996ZM103.333 99.9996C103.333 105.522 98.8559 110 93.3331 110C87.8102 110 83.3331 105.522 83.3331 99.9996C83.3331 94.4768 87.8102 89.9996 93.3331 89.9996C98.8559 89.9996 103.333 94.4768 103.333 99.9996Z" fill="#244A59"/>
</svg>
