<svg width="60" height="82" viewBox="0 0 60 82" fill="none" xmlns="http://www.w3.org/2000/svg">
<circle cx="10.5" cy="15.5" r="7.5" fill="#244A59" fill-opacity="0.5"/>
<circle cx="5" cy="49" r="5" fill="#244A59" fill-opacity="0.5"/>
<circle cx="45" cy="49" r="10" fill="#244A59" fill-opacity="0.5"/>
<circle cx="35.5" cy="60.5" r="2.5" fill="#244A59" fill-opacity="0.5"/>
<circle cx="23.5" cy="3.5" r="3.5" fill="#244A59" fill-opacity="0.5"/>
<circle cx="23.5" cy="3.5" r="3.5" fill="#244A59" fill-opacity="0.5"/>
<path fill-rule="evenodd" clip-rule="evenodd" d="M28 58C41.8071 58 53 46.8071 53 33C53 19.1929 41.8071 8 28 8C14.1929 8 3 19.1929 3 33C3 46.8071 14.1929 58 28 58ZM37 30C37 34.9706 31.7059 41.5 28 46C24.2941 41.5 19 34.9706 19 30C19 25.0294 22.7371 21 28 21C33.263 21 37 25.0294 37 30ZM31 30C31 31.6569 29.6569 33 28 33C26.3431 33 25 31.6569 25 30C25 28.3431 26.3431 27 28 27C29.6569 27 31 28.3431 31 30Z" fill="#244A59"/>
<path fill-rule="evenodd" clip-rule="evenodd" d="M40.0002 48C51.0459 48 60.0002 39.0457 60.0002 28C60.0002 16.9543 51.0459 8 40.0002 8C29.8128 8 21.4045 15.6167 20.1592 25.4661C21.655 22.7947 24.4878 21 28.0002 21C33.2631 21 37.0002 25.0294 37.0002 30C37.0002 34.521 32.6204 40.3317 29.0396 44.7319C32.1874 46.7981 35.9534 48 40.0002 48ZM31.0002 30C31.0002 31.6569 29.657 33 28.0002 33C26.3433 33 25.0002 31.6569 25.0002 30C25.0002 28.3431 26.3433 27 28.0002 27C29.657 27 31.0002 28.3431 31.0002 30Z" fill="#244A59" fill-opacity="0.5"/>
<circle cx="41" cy="79.7939" r="2" fill="#244A59"/>
<path d="M39 70.2939L39.7441 69.8434C40.5815 69.3363 41.6276 69.3211 42.4793 69.8037V69.8037C43.4553 70.3566 43.9862 71.4724 43.8182 72.5815V72.5815C43.6828 73.475 43.1218 74.2773 42.2761 74.5956C41.6342 74.8372 41.0002 75.0044 41.0002 74.7219" stroke="#244A59" stroke-width="4" stroke-linecap="round"/>
<path d="M11 69.7939V79.7939M18 69.7939L15.9472 73.8995C15.6657 74.4626 15.6657 75.1253 15.9472 75.6884L18 79.7939" stroke="#244A59" stroke-width="4" stroke-linecap="round"/>
<path d="M24 69.7939V79.7939" stroke="#244A59" stroke-width="4" stroke-linecap="round"/>
<path d="M24 69.7939H27.5018C28.7812 69.7939 30.0083 70.3022 30.9129 71.2069V71.2069C32.6654 72.9594 32.8049 75.7547 31.2354 77.6729L31.0004 77.9601C30.0507 79.1208 28.6303 79.7939 27.1306 79.7939H24" stroke="#244A59" stroke-width="4" stroke-linecap="round"/>
</svg>
